# xmcd
#
# Track frame offsets:
#	150
#	19807
#	37601
#	63358
#	86111
#	108334
#	133341
#	156550
#	179036
#	201748
#	215036
#
# Disc length: 3261 seconds
#
# Revision: 1
# Processed by: cddbd v1.5.1PL2 Copyright (c) Steve Scherf et al.
# Submitted via: audiograbber 1.83.01
#
DISCID=aa0cbb0b
DTITLE=DEBELI ROMEO - Boje ljubavi
DYEAR=2005
DGENRE=Pop
TTITLE0=Debeli Romeo
TTITLE1=Da li bi mi dala
TTITLE2=Bez tebe
TTITLE3=Voli me
TTITLE4=Daj mi daj
TTITLE5=Treba nam ljubav
TTITLE6=Jedina si ti
TTITLE7=Ja dalje putujem sam
TTITLE8=Tvoj trag
TTITLE9=Samo rollay boogie
TTITLE10=Daleko si
EXTD=
EXTT0=
EXTT1=
EXTT2=
EXTT3=
EXTT4=
EXTT5=
EXTT6=
EXTT7=
EXTT8=
EXTT9=
EXTT10=
PLAYORDER=
